<?xml version="1.0" encoding="UTF-8" standalone="no"?>
<svg
   width="720pt"
   height="432pt"
   viewBox="0 0 720 432"
   version="1.1"
   id="svg42151"
   sodipodi:docname="FigureS4_new.svg"
   inkscape:version="1.2.2 (b0a8486541, 2022-12-01)"
   xmlns:inkscape="http://www.inkscape.org/namespaces/inkscape"
   xmlns:sodipodi="http://sodipodi.sourceforge.net/DTD/sodipodi-0.dtd"
   xmlns:xlink="http://www.w3.org/1999/xlink"
   xmlns="http://www.w3.org/2000/svg"
   xmlns:svg="http://www.w3.org/2000/svg"
   xmlns:rdf="http://www.w3.org/1999/02/22-rdf-syntax-ns#"
   xmlns:cc="http://creativecommons.org/ns#"
   xmlns:dc="http://purl.org/dc/elements/1.1/">
  <sodipodi:namedview
     id="namedview42153"
     pagecolor="#ffffff"
     bordercolor="#000000"
     borderopacity="0.25"
     inkscape:showpageshadow="2"
     inkscape:pageopacity="0.0"
     inkscape:pagecheckerboard="0"
     inkscape:deskcolor="#d1d1d1"
     inkscape:document-units="pt"
     showgrid="false"
     inkscape:zoom="1.3645833"
     inkscape:cx="484.39695"
     inkscape:cy="296.42748"
     inkscape:window-width="1978"
     inkscape:window-height="1257"
     inkscape:window-x="3094"
     inkscape:window-y="106"
     inkscape:window-maximized="0"
     inkscape:current-layer="svg42151" />
  <metadata
     id="metadata41642">
    <rdf:RDF>
      <cc:Work>
        <dc:type
           rdf:resource="http://purl.org/dc/dcmitype/StillImage" />
        <dc:date>2026-07-24T10:00:06.679514</dc:date>
        <dc:format>image/svg+xml</dc:format>
        <dc:creator>
          <cc:Agent>
            <dc:title>Matplotlib v3.10.3, https://matplotlib.org/</dc:title>
          </cc:Agent>
        </dc:creator>
      </cc:Work>
    </rdf:RDF>
  </metadata>
  <defs
     id="defs41646">
    <style
       type="text/css"
       id="style41644">*{stroke-linejoin: round; stroke-linecap: butt}</style>
  </defs>
  <g
     id="figure_1"
     inkscape:export-filename="FigureS4_new_200.png"
     inkscape:export-xdpi="200"
     inkscape:export-ydpi="200">
    <g
       id="patch_1">
      <path
         d="M 0 432  L 720 432  L 720 0  L 0 0  z "
         style="fill: #ffffff"
         id="path41648" />
    </g>
    <g
       id="axes_1">
      <g
         id="patch_2">
        <path
           d="M 116.48 354.04  L 685.215 354.04  L 685.215 28.8  L 116.48 28.8  z "
           style="fill: #ffffff"
           id="path41651" />
      </g>
      <g
         id="matplotlib.axis_1">
        <g
           id="xtick_1">
          <g
             id="line2d_1">
            <path
               d="M 342.802411 354.04  L 342.802411 28.8  "
               clip-path="url(#p01a08be0bf)"
               style="fill: none; stroke: #000000; stroke-width: 0.8; stroke-linecap: square"
               id="path41654" />
          </g>
          <g
             id="line2d_2">
            <defs
               id="defs41658">
              <path
                 id="m84751834f6"
                 d="M 0 0  L 0 3.5  "
                 style="stroke: #000000; stroke-width: 0.8" />
            </defs>
            <g
               id="g41662">
              <use
                 xlink:href="#m84751834f6"
                 x="342.802411"
                 y="354.04"
                 style="stroke: #000000; stroke-width: 0.8"
                 id="use41660" />
            </g>
          </g>
          <g
             id="text_1">
            <!-- 5 -->
            <g
               transform="translate(335.167411 379.27625) scale(0.24 -0.24)"
               id="g41670">
              <defs
                 id="defs41666">
                <path
                   id="DejaVuSans-35"
                   d="M 691 4666  L 3169 4666  L 3169 4134  L 1269 4134  L 1269 2991  Q 1406 3038 1543 3061  Q 1681 3084 1819 3084  Q 2600 3084 3056 2656  Q 3513 2228 3513 1497  Q 3513 744 3044 326  Q 2575 -91 1722 -91  Q 1428 -91 1123 -41  Q 819 9 494 109  L 494 744  Q 775 591 1075 516  Q 1375 441 1709 441  Q 2250 441 2565 725  Q 2881 1009 2881 1497  Q 2881 1984 2565 2268  Q 2250 2553 1709 2553  Q 1456 2553 1204 2497  Q 953 2441 691 2322  L 691 4666  z "
                   transform="scale(0.015625)" />
              </defs>
              <use
                 xlink:href="#DejaVuSans-35"
                 id="use41668" />
            </g>
          </g>
        </g>
        <g
           id="xtick_2">
          <g
             id="line2d_3">
            <path
               d="M 514.008705 354.04  L 514.008705 28.8  "
               clip-path="url(#p01a08be0bf)"
               style="fill: none; stroke: #000000; stroke-width: 0.8; stroke-linecap: square"
               id="path41674" />
          </g>
          <g
             id="line2d_4">
            <g
               id="g41679">
              <use
                 xlink:href="#m84751834f6"
                 x="514.008705"
                 y="354.04"
                 style="stroke: #000000; stroke-width: 0.8"
                 id="use41677" />
            </g>
          </g>
          <g
             id="text_2">
            <!-- 10 -->
            <g
               transform="translate(498.738705 379.27625) scale(0.24 -0.24)"
               id="g41690">
              <defs
                 id="defs41684">
                <path
                   id="DejaVuSans-31"
                   d="M 794 531  L 1825 531  L 1825 4091  L 703 3866  L 703 4441  L 1819 4666  L 2450 4666  L 2450 531  L 3481 531  L 3481 0  L 794 0  L 794 531  z "
                   transform="scale(0.015625)" />
                <path
                   id="DejaVuSans-30"
                   d="M 2034 4250  Q 1547 4250 1301 3770  Q 1056 3291 1056 2328  Q 1056 1369 1301 889  Q 1547 409 2034 409  Q 2525 409 2770 889  Q 3016 1369 3016 2328  Q 3016 3291 2770 3770  Q 2525 4250 2034 4250  z M 2034 4750  Q 2819 4750 3233 4129  Q 3647 3509 3647 2328  Q 3647 1150 3233 529  Q 2819 -91 2034 -91  Q 1250 -91 836 529  Q 422 1150 422 2328  Q 422 3509 836 4129  Q 1250 4750 2034 4750  z "
                   transform="scale(0.015625)" />
              </defs>
              <use
                 xlink:href="#DejaVuSans-31"
                 id="use41686" />
              <use
                 xlink:href="#DejaVuSans-30"
                 transform="translate(63.623047 0)"
                 id="use41688" />
            </g>
          </g>
        </g>
        <g
           id="xtick_3">
          <g
             id="line2d_5">
            <path
               d="M 685.215 354.04  L 685.215 28.8  "
               clip-path="url(#p01a08be0bf)"
               style="fill: none; stroke: #000000; stroke-width: 0.8; stroke-linecap: square"
               id="path41694" />
          </g>
          <g
             id="line2d_6">
            <g
               id="g41699">
              <use
                 xlink:href="#m84751834f6"
                 x="685.215"
                 y="354.04"
                 style="stroke: #000000; stroke-width: 0.8"
                 id="use41697" />
            </g>
          </g>
          <g
             id="text_3">
            <!-- 20 -->
            <g
               transform="translate(669.945 379.27625) scale(0.24 -0.24)"
               id="g41709">
              <defs
                 id="defs41703">
                <path
                   id="DejaVuSans-32"
                   d="M 1228 531  L 3431 531  L 3431 0  L 469 0  L 469 531  Q 828 903 1448 1529  Q 2069 2156 2228 2338  Q 2531 2678 2651 2914  Q 2772 3150 2772 3378  Q 2772 3750 2511 3984  Q 2250 4219 1831 4219  Q 1534 4219 1204 4116  Q 875 4013 500 3803  L 500 4441  Q 881 4594 1212 4672  Q 1544 4750 1819 4750  Q 2544 4750 2975 4387  Q 3406 4025 3406 3419  Q 3406 3131 3298 2873  Q 3191 2616 2906 2266  Q 2828 2175 2409 1742  Q 1991 1309 1228 531  z "
                   transform="scale(0.015625)" />
              </defs>
              <use
                 xlink:href="#DejaVuSans-32"
                 id="use41705" />
              <use
                 xlink:href="#DejaVuSans-30"
                 transform="translate(63.623047 0)"
                 id="use41707" />
            </g>
          </g>
        </g>
        <g
           id="text_4">
          <!-- Alignment depth -->
          <g
             transform="translate(300.623125 406.50375) scale(0.24 -0.24)"
             id="g41757">
            <defs
               id="defs41725">
              <path
                 id="DejaVuSans-41"
                 d="M 2188 4044  L 1331 1722  L 3047 1722  L 2188 4044  z M 1831 4666  L 2547 4666  L 4325 0  L 3669 0  L 3244 1197  L 1141 1197  L 716 0  L 50 0  L 1831 4666  z "
                 transform="scale(0.015625)" />
              <path
                 id="DejaVuSans-6c"
                 d="M 603 4863  L 1178 4863  L 1178 0  L 603 0  L 603 4863  z "
                 transform="scale(0.015625)" />
              <path
                 id="DejaVuSans-69"
                 d="M 603 3500  L 1178 3500  L 1178 0  L 603 0  L 603 3500  z M 603 4863  L 1178 4863  L 1178 4134  L 603 4134  L 603 4863  z "
                 transform="scale(0.015625)" />
              <path
                 id="DejaVuSans-67"
                 d="M 2906 1791  Q 2906 2416 2648 2759  Q 2391 3103 1925 3103  Q 1463 3103 1205 2759  Q 947 2416 947 1791  Q 947 1169 1205 825  Q 1463 481 1925 481  Q 2391 481 2648 825  Q 2906 1169 2906 1791  z M 3481 434  Q 3481 -459 3084 -895  Q 2688 -1331 1869 -1331  Q 1566 -1331 1297 -1286  Q 1028 -1241 775 -1147  L 775 -588  Q 1028 -725 1275 -790  Q 1522 -856 1778 -856  Q 2344 -856 2625 -561  Q 2906 -266 2906 331  L 2906 616  Q 2728 306 2450 153  Q 2172 0 1784 0  Q 1141 0 747 490  Q 353 981 353 1791  Q 353 2603 747 3093  Q 1141 3584 1784 3584  Q 2172 3584 2450 3431  Q 2728 3278 2906 2969  L 2906 3500  L 3481 3500  L 3481 434  z "
                 transform="scale(0.015625)" />
              <path
                 id="DejaVuSans-6e"
                 d="M 3513 2113  L 3513 0  L 2938 0  L 2938 2094  Q 2938 2591 2744 2837  Q 2550 3084 2163 3084  Q 1697 3084 1428 2787  Q 1159 2491 1159 1978  L 1159 0  L 581 0  L 581 3500  L 1159 3500  L 1159 2956  Q 1366 3272 1645 3428  Q 1925 3584 2291 3584  Q 2894 3584 3203 3211  Q 3513 2838 3513 2113  z "
                 transform="scale(0.015625)" />
              <path
                 id="DejaVuSans-6d"
                 d="M 3328 2828  Q 3544 3216 3844 3400  Q 4144 3584 4550 3584  Q 5097 3584 5394 3201  Q 5691 2819 5691 2113  L 5691 0  L 5113 0  L 5113 2094  Q 5113 2597 4934 2840  Q 4756 3084 4391 3084  Q 3944 3084 3684 2787  Q 3425 2491 3425 1978  L 3425 0  L 2847 0  L 2847 2094  Q 2847 2600 2669 2842  Q 2491 3084 2119 3084  Q 1678 3084 1418 2786  Q 1159 2488 1159 1978  L 1159 0  L 581 0  L 581 3500  L 1159 3500  L 1159 2956  Q 1356 3278 1631 3431  Q 1906 3584 2284 3584  Q 2666 3584 2933 3390  Q 3200 3197 3328 2828  z "
                 transform="scale(0.015625)" />
              <path
                 id="DejaVuSans-65"
                 d="M 3597 1894  L 3597 1613  L 953 1613  Q 991 1019 1311 708  Q 1631 397 2203 397  Q 2534 397 2845 478  Q 3156 559 3463 722  L 3463 178  Q 3153 47 2828 -22  Q 2503 -91 2169 -91  Q 1331 -91 842 396  Q 353 884 353 1716  Q 353 2575 817 3079  Q 1281 3584 2069 3584  Q 2775 3584 3186 3129  Q 3597 2675 3597 1894  z M 3022 2063  Q 3016 2534 2758 2815  Q 2500 3097 2075 3097  Q 1594 3097 1305 2825  Q 1016 2553 972 2059  L 3022 2063  z "
                 transform="scale(0.015625)" />
              <path
                 id="DejaVuSans-74"
                 d="M 1172 4494  L 1172 3500  L 2356 3500  L 2356 3053  L 1172 3053  L 1172 1153  Q 1172 725 1289 603  Q 1406 481 1766 481  L 2356 481  L 2356 0  L 1766 0  Q 1100 0 847 248  Q 594 497 594 1153  L 594 3053  L 172 3053  L 172 3500  L 594 3500  L 594 4494  L 1172 4494  z "
                 transform="scale(0.015625)" />
              <path
                 id="DejaVuSans-20"
                 transform="scale(0.015625)" />
              <path
                 id="DejaVuSans-64"
                 d="M 2906 2969  L 2906 4863  L 3481 4863  L 3481 0  L 2906 0  L 2906 525  Q 2725 213 2448 61  Q 2172 -91 1784 -91  Q 1150 -91 751 415  Q 353 922 353 1747  Q 353 2572 751 3078  Q 1150 3584 1784 3584  Q 2172 3584 2448 3432  Q 2725 3281 2906 2969  z M 947 1747  Q 947 1113 1208 752  Q 1469 391 1925 391  Q 2381 391 2643 752  Q 2906 1113 2906 1747  Q 2906 2381 2643 2742  Q 2381 3103 1925 3103  Q 1469 3103 1208 2742  Q 947 2381 947 1747  z "
                 transform="scale(0.015625)" />
              <path
                 id="DejaVuSans-70"
                 d="M 1159 525  L 1159 -1331  L 581 -1331  L 581 3500  L 1159 3500  L 1159 2969  Q 1341 3281 1617 3432  Q 1894 3584 2278 3584  Q 2916 3584 3314 3078  Q 3713 2572 3713 1747  Q 3713 922 3314 415  Q 2916 -91 2278 -91  Q 1894 -91 1617 61  Q 1341 213 1159 525  z M 3116 1747  Q 3116 2381 2855 2742  Q 2594 3103 2138 3103  Q 1681 3103 1420 2742  Q 1159 2381 1159 1747  Q 1159 1113 1420 752  Q 1681 391 2138 391  Q 2594 391 2855 752  Q 3116 1113 3116 1747  z "
                 transform="scale(0.015625)" />
              <path
                 id="DejaVuSans-68"
                 d="M 3513 2113  L 3513 0  L 2938 0  L 2938 2094  Q 2938 2591 2744 2837  Q 2550 3084 2163 3084  Q 1697 3084 1428 2787  Q 1159 2491 1159 1978  L 1159 0  L 581 0  L 581 4863  L 1159 4863  L 1159 2956  Q 1366 3272 1645 3428  Q 1925 3584 2291 3584  Q 2894 3584 3203 3211  Q 3513 2838 3513 2113  z "
                 transform="scale(0.015625)" />
            </defs>
            <use
               xlink:href="#DejaVuSans-41"
               id="use41727" />
            <use
               xlink:href="#DejaVuSans-6c"
               transform="translate(68.408203 0)"
               id="use41729" />
            <use
               xlink:href="#DejaVuSans-69"
               transform="translate(96.191406 0)"
               id="use41731" />
            <use
               xlink:href="#DejaVuSans-67"
               transform="translate(123.974609 0)"
               id="use41733" />
            <use
               xlink:href="#DejaVuSans-6e"
               transform="translate(187.451172 0)"
               id="use41735" />
            <use
               xlink:href="#DejaVuSans-6d"
               transform="translate(250.830078 0)"
               id="use41737" />
            <use
               xlink:href="#DejaVuSans-65"
               transform="translate(348.242188 0)"
               id="use41739" />
            <use
               xlink:href="#DejaVuSans-6e"
               transform="translate(409.765625 0)"
               id="use41741" />
            <use
               xlink:href="#DejaVuSans-74"
               transform="translate(473.144531 0)"
               id="use41743" />
            <use
               xlink:href="#DejaVuSans-20"
               transform="translate(512.353516 0)"
               id="use41745" />
            <use
               xlink:href="#DejaVuSans-64"
               transform="translate(544.140625 0)"
               id="use41747" />
            <use
               xlink:href="#DejaVuSans-65"
               transform="translate(607.617188 0)"
               id="use41749" />
            <use
               xlink:href="#DejaVuSans-70"
               transform="translate(669.140625 0)"
               id="use41751" />
            <use
               xlink:href="#DejaVuSans-74"
               transform="translate(732.617188 0)"
               id="use41753" />
            <use
               xlink:href="#DejaVuSans-68"
               transform="translate(771.826172 0)"
               id="use41755" />
          </g>
        </g>
      </g>
      <g
         id="matplotlib.axis_2">
        <g
           id="ytick_1">
          <g
             id="line2d_7">
            <path
               d="M 116.48 354.04  L 685.215 354.04  "
               clip-path="url(#p01a08be0bf)"
               style="fill: none; stroke: #000000; stroke-width: 0.8; stroke-linecap: square"
               id="path41761" />
          </g>
          <g
             id="line2d_8">
            <defs
               id="defs41765">
              <path
                 id="mc8ea938dab"
                 d="M 0 0  L -3.5 0  "
                 style="stroke: #000000; stroke-width: 0.8" />
            </defs>
            <g
               id="g41769">
              <use
                 xlink:href="#mc8ea938dab"
                 x="116.48"
                 y="354.04"
                 style="stroke: #000000; stroke-width: 0.8"
                 id="use41767" />
            </g>
          </g>
          <g
             id="text_5">
            <!-- -0.2 -->
            <g
               transform="translate(62.65375 363.158125) scale(0.24 -0.24)"
               id="g41784">
              <defs
                 id="defs41774">
                <path
                   id="DejaVuSans-2d"
                   d="M 313 2009  L 1997 2009  L 1997 1497  L 313 1497  L 313 2009  z "
                   transform="scale(0.015625)" />
                <path
                   id="DejaVuSans-2e"
                   d="M 684 794  L 1344 794  L 1344 0  L 684 0  L 684 794  z "
                   transform="scale(0.015625)" />
              </defs>
              <use
                 xlink:href="#DejaVuSans-2d"
                 id="use41776" />
              <use
                 xlink:href="#DejaVuSans-30"
                 transform="translate(36.083984 0)"
                 id="use41778" />
              <use
                 xlink:href="#DejaVuSans-2e"
                 transform="translate(99.707031 0)"
                 id="use41780" />
              <use
                 xlink:href="#DejaVuSans-32"
                 transform="translate(131.494141 0)"
                 id="use41782" />
            </g>
          </g>
        </g>
        <g
           id="ytick_2">
          <g
             id="line2d_9">
            <path
               d="M 116.48 288.992  L 685.215 288.992  "
               clip-path="url(#p01a08be0bf)"
               style="fill: none; stroke: #000000; stroke-width: 0.8; stroke-linecap: square"
               id="path41788" />
          </g>
          <g
             id="line2d_10">
            <g
               id="g41793">
              <use
                 xlink:href="#mc8ea938dab"
                 x="116.48"
                 y="288.992"
                 style="stroke: #000000; stroke-width: 0.8"
                 id="use41791" />
            </g>
          </g>
          <g
             id="text_6">
            <!-- -0.15 -->
            <g
               transform="translate(47.38375 298.110125) scale(0.24 -0.24)"
               id="g41806">
              <use
                 xlink:href="#DejaVuSans-2d"
                 id="use41796" />
              <use
                 xlink:href="#DejaVuSans-30"
                 transform="translate(36.083984 0)"
                 id="use41798" />
              <use
                 xlink:href="#DejaVuSans-2e"
                 transform="translate(99.707031 0)"
                 id="use41800" />
              <use
                 xlink:href="#DejaVuSans-31"
                 transform="translate(131.494141 0)"
                 id="use41802" />
              <use
                 xlink:href="#DejaVuSans-35"
                 transform="translate(195.117188 0)"
                 id="use41804" />
            </g>
          </g>
        </g>
        <g
           id="ytick_3">
          <g
             id="line2d_11">
            <path
               d="M 116.48 223.944  L 685.215 223.944  "
               clip-path="url(#p01a08be0bf)"
               style="fill: none; stroke: #000000; stroke-width: 0.8; stroke-linecap: square"
               id="path41810" />
          </g>
          <g
             id="line2d_12">
            <g
               id="g41815">
              <use
                 xlink:href="#mc8ea938dab"
                 x="116.48"
                 y="223.944"
                 style="stroke: #000000; stroke-width: 0.8"
                 id="use41813" />
            </g>
          </g>
          <g
             id="text_7">
            <!-- -0.1 -->
            <g
               transform="translate(62.65375 233.062125) scale(0.24 -0.24)"
               id="g41826">
              <use
                 xlink:href="#DejaVuSans-2d"
                 id="use41818" />
              <use
                 xlink:href="#DejaVuSans-30"
                 transform="translate(36.083984 0)"
                 id="use41820" />
              <use
                 xlink:href="#DejaVuSans-2e"
                 transform="translate(99.707031 0)"
                 id="use41822" />
              <use
                 xlink:href="#DejaVuSans-31"
                 transform="translate(131.494141 0)"
                 id="use41824" />
            </g>
          </g>
        </g>
        <g
           id="ytick_4">
          <g
             id="line2d_13">
            <path
               d="M 116.48 158.896  L 685.215 158.896  "
               clip-path="url(#p01a08be0bf)"
               style="fill: none; stroke: #000000; stroke-width: 0.8; stroke-linecap: square"
               id="path41830" />
          </g>
          <g
             id="line2d_14">
            <g
               id="g41835">
              <use
                 xlink:href="#mc8ea938dab"
                 x="116.48"
                 y="158.896"
                 style="stroke: #000000; stroke-width: 0.8"
                 id="use41833" />
            </g>
          </g>
          <g
             id="text_8">
            <!-- -0.05 -->
            <g
               transform="translate(47.38375 168.014125) scale(0.24 -0.24)"
               id="g41848">
              <use
                 xlink:href="#DejaVuSans-2d"
                 id="use41838" />
              <use
                 xlink:href="#DejaVuSans-30"
                 transform="translate(36.083984 0)"
                 id="use41840" />
              <use
                 xlink:href="#DejaVuSans-2e"
                 transform="translate(99.707031 0)"
                 id="use41842" />
              <use
                 xlink:href="#DejaVuSans-30"
                 transform="translate(131.494141 0)"
                 id="use41844" />
              <use
                 xlink:href="#DejaVuSans-35"
                 transform="translate(195.117188 0)"
                 id="use41846" />
            </g>
          </g>
        </g>
        <g
           id="ytick_5">
          <g
             id="line2d_15">
            <path
               d="M 116.48 93.848  L 685.215 93.848  "
               clip-path="url(#p01a08be0bf)"
               style="fill: none; stroke: #000000; stroke-width: 0.8; stroke-linecap: square"
               id="path41852" />
          </g>
          <g
             id="line2d_16">
            <g
               id="g41857">
              <use
                 xlink:href="#mc8ea938dab"
                 x="116.48"
                 y="93.848"
                 style="stroke: #000000; stroke-width: 0.8"
                 id="use41855" />
            </g>
          </g>
          <g
             id="text_9">
            <!-- 0 -->
            <g
               transform="translate(94.21 102.966125) scale(0.24 -0.24)"
               id="g41862">
              <use
                 xlink:href="#DejaVuSans-30"
                 id="use41860" />
            </g>
          </g>
        </g>
        <g
           id="ytick_6">
          <g
             id="line2d_17">
            <path
               d="M 116.48 28.8  L 685.215 28.8  "
               clip-path="url(#p01a08be0bf)"
               style="fill: none; stroke: #000000; stroke-width: 0.8; stroke-linecap: square"
               id="path41866" />
          </g>
          <g
             id="line2d_18">
            <g
               id="g41871">
              <use
                 xlink:href="#mc8ea938dab"
                 x="116.48"
                 y="28.8"
                 style="stroke: #000000; stroke-width: 0.8"
                 id="use41869" />
            </g>
          </g>
          <g
             id="text_10">
            <!-- 0.05 -->
            <g
               transform="translate(56.0425 37.918125) scale(0.24 -0.24)"
               id="g41882">
              <use
                 xlink:href="#DejaVuSans-30"
                 id="use41874" />
              <use
                 xlink:href="#DejaVuSans-2e"
                 transform="translate(63.623047 0)"
                 id="use41876" />
              <use
                 xlink:href="#DejaVuSans-30"
                 transform="translate(95.410156 0)"
                 id="use41878" />
              <use
                 xlink:href="#DejaVuSans-35"
                 transform="translate(159.033203 0)"
                 id="use41880" />
            </g>
          </g>
        </g>
        <g
           id="text_11">
          <!-- Pearson Correlation Coefficient -->
          <g
             transform="translate(38.3925 377.395625) rotate(-90) scale(0.24 -0.24)"
             id="g41958">
            <defs
               id="defs41894">
              <path
                 id="DejaVuSans-50"
                 d="M 1259 4147  L 1259 2394  L 2053 2394  Q 2494 2394 2734 2622  Q 2975 2850 2975 3272  Q 2975 3691 2734 3919  Q 2494 4147 2053 4147  L 1259 4147  z M 628 4666  L 2053 4666  Q 2838 4666 3239 4311  Q 3641 3956 3641 3272  Q 3641 2581 3239 2228  Q 2838 1875 2053 1875  L 1259 1875  L 1259 0  L 628 0  L 628 4666  z "
                 transform="scale(0.015625)" />
              <path
                 id="DejaVuSans-61"
                 d="M 2194 1759  Q 1497 1759 1228 1600  Q 959 1441 959 1056  Q 959 750 1161 570  Q 1363 391 1709 391  Q 2188 391 2477 730  Q 2766 1069 2766 1631  L 2766 1759  L 2194 1759  z M 3341 1997  L 3341 0  L 2766 0  L 2766 531  Q 2569 213 2275 61  Q 1981 -91 1556 -91  Q 1019 -91 701 211  Q 384 513 384 1019  Q 384 1609 779 1909  Q 1175 2209 1959 2209  L 2766 2209  L 2766 2266  Q 2766 2663 2505 2880  Q 2244 3097 1772 3097  Q 1472 3097 1187 3025  Q 903 2953 641 2809  L 641 3341  Q 956 3463 1253 3523  Q 1550 3584 1831 3584  Q 2591 3584 2966 3190  Q 3341 2797 3341 1997  z "
                 transform="scale(0.015625)" />
              <path
                 id="DejaVuSans-72"
                 d="M 2631 2963  Q 2534 3019 2420 3045  Q 2306 3072 2169 3072  Q 1681 3072 1420 2755  Q 1159 2438 1159 1844  L 1159 0  L 581 0  L 581 3500  L 1159 3500  L 1159 2956  Q 1341 3275 1631 3429  Q 1922 3584 2338 3584  Q 2397 3584 2469 3576  Q 2541 3569 2628 3553  L 2631 2963  z "
                 transform="scale(0.015625)" />
              <path
                 id="DejaVuSans-73"
                 d="M 2834 3397  L 2834 2853  Q 2591 2978 2328 3040  Q 2066 3103 1784 3103  Q 1356 3103 1142 2972  Q 928 2841 928 2578  Q 928 2378 1081 2264  Q 1234 2150 1697 2047  L 1894 2003  Q 2506 1872 2764 1633  Q 3022 1394 3022 966  Q 3022 478 2636 193  Q 2250 -91 1575 -91  Q 1294 -91 989 -36  Q 684 19 347 128  L 347 722  Q 666 556 975 473  Q 1284 391 1588 391  Q 1994 391 2212 530  Q 2431 669 2431 922  Q 2431 1156 2273 1281  Q 2116 1406 1581 1522  L 1381 1569  Q 847 1681 609 1914  Q 372 2147 372 2553  Q 372 3047 722 3315  Q 1072 3584 1716 3584  Q 2034 3584 2315 3537  Q 2597 3491 2834 3397  z "
                 transform="scale(0.015625)" />
              <path
                 id="DejaVuSans-6f"
                 d="M 1959 3097  Q 1497 3097 1228 2736  Q 959 2375 959 1747  Q 959 1119 1226 758  Q 1494 397 1959 397  Q 2419 397 2687 759  Q 2956 1122 2956 1747  Q 2956 2369 2687 2733  Q 2419 3097 1959 3097  z M 1959 3584  Q 2709 3584 3137 3096  Q 3566 2609 3566 1747  Q 3566 888 3137 398  Q 2709 -91 1959 -91  Q 1206 -91 779 398  Q 353 888 353 1747  Q 353 2609 779 3096  Q 1206 3584 1959 3584  z "
                 transform="scale(0.015625)" />
              <path
                 id="DejaVuSans-43"
                 d="M 4122 4306  L 4122 3641  Q 3803 3938 3442 4084  Q 3081 4231 2675 4231  Q 1875 4231 1450 3742  Q 1025 3253 1025 2328  Q 1025 1406 1450 917  Q 1875 428 2675 428  Q 3081 428 3442 575  Q 3803 722 4122 1019  L 4122 359  Q 3791 134 3420 21  Q 3050 -91 2638 -91  Q 1578 -91 968 557  Q 359 1206 359 2328  Q 359 3453 968 4101  Q 1578 4750 2638 4750  Q 3056 4750 3426 4639  Q 3797 4528 4122 4306  z "
                 transform="scale(0.015625)" />
              <path
                 id="DejaVuSans-66"
                 d="M 2375 4863  L 2375 4384  L 1825 4384  Q 1516 4384 1395 4259  Q 1275 4134 1275 3809  L 1275 3500  L 2222 3500  L 2222 3053  L 1275 3053  L 1275 0  L 697 0  L 697 3053  L 147 3053  L 147 3500  L 697 3500  L 697 3744  Q 697 4328 969 4595  Q 1241 4863 1831 4863  L 2375 4863  z "
                 transform="scale(0.015625)" />
              <path
                 id="DejaVuSans-63"
                 d="M 3122 3366  L 3122 2828  Q 2878 2963 2633 3030  Q 2388 3097 2138 3097  Q 1578 3097 1268 2742  Q 959 2388 959 1747  Q 959 1106 1268 751  Q 1578 397 2138 397  Q 2388 397 2633 464  Q 2878 531 3122 666  L 3122 134  Q 2881 22 2623 -34  Q 2366 -91 2075 -91  Q 1284 -91 818 406  Q 353 903 353 1747  Q 353 2603 823 3093  Q 1294 3584 2113 3584  Q 2378 3584 2631 3529  Q 2884 3475 3122 3366  z "
                 transform="scale(0.015625)" />
            </defs>
            <use
               xlink:href="#DejaVuSans-50"
               id="use41896" />
            <use
               xlink:href="#DejaVuSans-65"
               transform="translate(56.677734 0)"
               id="use41898" />
            <use
               xlink:href="#DejaVuSans-61"
               transform="translate(118.201172 0)"
               id="use41900" />
            <use
               xlink:href="#DejaVuSans-72"
               transform="translate(179.480469 0)"
               id="use41902" />
            <use
               xlink:href="#DejaVuSans-73"
               transform="translate(220.59375 0)"
               id="use41904" />
            <use
               xlink:href="#DejaVuSans-6f"
               transform="translate(272.693359 0)"
               id="use41906" />
            <use
               xlink:href="#DejaVuSans-6e"
               transform="translate(333.875 0)"
               id="use41908" />
            <use
               xlink:href="#DejaVuSans-20"
               transform="translate(397.253906 0)"
               id="use41910" />
            <use
               xlink:href="#DejaVuSans-43"
               transform="translate(429.041016 0)"
               id="use41912" />
            <use
               xlink:href="#DejaVuSans-6f"
               transform="translate(498.865234 0)"
               id="use41914" />
            <use
               xlink:href="#DejaVuSans-72"
               transform="translate(560.046875 0)"
               id="use41916" />
            <use
               xlink:href="#DejaVuSans-72"
               transform="translate(599.410156 0)"
               id="use41918" />
            <use
               xlink:href="#DejaVuSans-65"
               transform="translate(638.273438 0)"
               id="use41920" />
            <use
               xlink:href="#DejaVuSans-6c"
               transform="translate(699.796875 0)"
               id="use41922" />
            <use
               xlink:href="#DejaVuSans-61"
               transform="translate(727.580078 0)"
               id="use41924" />
            <use
               xlink:href="#DejaVuSans-74"
               transform="translate(788.859375 0)"
               id="use41926" />
            <use
               xlink:href="#DejaVuSans-69"
               transform="translate(828.068359 0)"
               id="use41928" />
            <use
               xlink:href="#DejaVuSans-6f"
               transform="translate(855.851562 0)"
               id="use41930" />
            <use
               xlink:href="#DejaVuSans-6e"
               transform="translate(917.033203 0)"
               id="use41932" />
            <use
               xlink:href="#DejaVuSans-20"
               transform="translate(980.412109 0)"
               id="use41934" />
            <use
               xlink:href="#DejaVuSans-43"
               transform="translate(1012.199219 0)"
               id="use41936" />
            <use
               xlink:href="#DejaVuSans-6f"
               transform="translate(1082.023438 0)"
               id="use41938" />
            <use
               xlink:href="#DejaVuSans-65"
               transform="translate(1143.205078 0)"
               id="use41940" />
            <use
               xlink:href="#DejaVuSans-66"
               transform="translate(1204.728516 0)"
               id="use41942" />
            <use
               xlink:href="#DejaVuSans-66"
               transform="translate(1239.933594 0)"
               id="use41944" />
            <use
               xlink:href="#DejaVuSans-69"
               transform="translate(1275.138672 0)"
               id="use41946" />
            <use
               xlink:href="#DejaVuSans-63"
               transform="translate(1302.921875 0)"
               id="use41948" />
            <use
               xlink:href="#DejaVuSans-69"
               transform="translate(1357.902344 0)"
               id="use41950" />
            <use
               xlink:href="#DejaVuSans-65"
               transform="translate(1385.685547 0)"
               id="use41952" />
            <use
               xlink:href="#DejaVuSans-6e"
               transform="translate(1447.208984 0)"
               id="use41954" />
            <use
               xlink:href="#DejaVuSans-74"
               transform="translate(1510.587891 0)"
               id="use41956" />
          </g>
        </g>
      </g>
      <g
         id="line2d_19">
        <path
           d="M 342.802411 337.768201  L 514.008705 231.920562  L 685.215 192.947713  "
           clip-path="url(#p01a08be0bf)"
           style="fill: none; stroke: #1f77b4; stroke-opacity: 0.7; stroke-width: 5; stroke-linecap: square"
           id="path41962" />
      </g>
      <g
         id="line2d_20">
        <path
           d="M 342.802411 150.351625  L 514.008705 92.218077  L 685.215 106.899069  "
           clip-path="url(#p01a08be0bf)"
           style="fill: none; stroke-dasharray: 5,8.25; stroke-dashoffset: 0; stroke: #ff7f0e; stroke-width: 5"
           id="path41965" />
      </g>
      <g
         id="line2d_21">
        <path
           d="M 342.802411 142.263221  L 514.008705 125.825357  L 685.215 100.440146  "
           clip-path="url(#p01a08be0bf)"
           style="fill: none; stroke-dasharray: 5,8.25; stroke-dashoffset: 0; stroke: #2ca02c; stroke-width: 5"
           id="path41968" />
      </g>
      <g
         id="line2d_22">
        <path
           d="M 342.802411 46.085624  L 514.008705 89.081791  L 685.215 112.342945  "
           clip-path="url(#p01a08be0bf)"
           style="fill: none; stroke-dasharray: 18.5,8; stroke-dashoffset: 0; stroke: #d62728; stroke-width: 5"
           id="path41971" />
      </g>
      <g
         id="line2d_23">
        <path
           d="M 342.802411 47.347987  L 514.008705 89.380054  L 685.215 119.529762  "
           clip-path="url(#p01a08be0bf)"
           style="fill: none; stroke-dasharray: 18.5,8; stroke-dashoffset: 0; stroke: #9467bd; stroke-width: 5"
           id="path41974" />
      </g>
      <g
         id="patch_3">
        <path
           d="M 116.48 354.04  L 116.48 28.8  "
           style="fill: none; stroke: #000000; stroke-width: 0.8; stroke-linejoin: miter; stroke-linecap: square"
           id="path41977" />
      </g>
      <g
         id="patch_4">
        <path
           d="M 685.215 354.04  L 685.215 28.8  "
           style="fill: none; stroke: #000000; stroke-width: 0.8; stroke-linejoin: miter; stroke-linecap: square"
           id="path41980" />
      </g>
      <g
         id="patch_5">
        <path
           d="M 116.48 354.04  L 685.215 354.04  "
           style="fill: none; stroke: #000000; stroke-width: 0.8; stroke-linejoin: miter; stroke-linecap: square"
           id="path41983" />
      </g>
      <g
         id="patch_6">
        <path
           d="M 116.48 28.8  L 685.215 28.8  "
           style="fill: none; stroke: #000000; stroke-width: 0.8; stroke-linejoin: miter; stroke-linecap: square"
           id="path41986" />
      </g>
      <g
         id="legend_1">
        <g
           id="patch_7">
          <path
             d="M 129.08 215.61525  L 319.3175 215.61525  Q 322.9175 215.61525 322.9175 212.01525  L 322.9175 41.4  Q 322.9175 37.8 319.3175 37.8  L 129.08 37.8  Q 125.48 37.8 125.48 41.4  L 125.48 212.01525  Q 125.48 215.61525 129.08 215.61525  z "
             style="fill: #ffffff; opacity: 0.8; stroke: #cccccc; stroke-linejoin: miter"
             id="path41989" />
        </g>
        <g
           id="line2d_24">
          <path
             d="M 132.68 52.377188  L 150.68 52.377188  L 168.68 52.377188  "
             style="fill: none; stroke: #1f77b4; stroke-opacity: 0.7; stroke-width: 4; stroke-linecap: square"
             id="path41992" />
        </g>
        <g
           id="text_12">
          <!-- SQUARNA -->
          <g
             transform="translate(183.08 58.677188) scale(0.18 -0.18)"
             id="g42016">
            <defs
               id="defs42000">
              <path
                 id="DejaVuSans-53"
                 d="M 3425 4513  L 3425 3897  Q 3066 4069 2747 4153  Q 2428 4238 2131 4238  Q 1616 4238 1336 4038  Q 1056 3838 1056 3469  Q 1056 3159 1242 3001  Q 1428 2844 1947 2747  L 2328 2669  Q 3034 2534 3370 2195  Q 3706 1856 3706 1288  Q 3706 609 3251 259  Q 2797 -91 1919 -91  Q 1588 -91 1214 -16  Q 841 59 441 206  L 441 856  Q 825 641 1194 531  Q 1563 422 1919 422  Q 2459 422 2753 634  Q 3047 847 3047 1241  Q 3047 1584 2836 1778  Q 2625 1972 2144 2069  L 1759 2144  Q 1053 2284 737 2584  Q 422 2884 422 3419  Q 422 4038 858 4394  Q 1294 4750 2059 4750  Q 2388 4750 2728 4690  Q 3069 4631 3425 4513  z "
                 transform="scale(0.015625)" />
              <path
                 id="DejaVuSans-51"
                 d="M 2522 4238  Q 1834 4238 1429 3725  Q 1025 3213 1025 2328  Q 1025 1447 1429 934  Q 1834 422 2522 422  Q 3209 422 3611 934  Q 4013 1447 4013 2328  Q 4013 3213 3611 3725  Q 3209 4238 2522 4238  z M 3406 84  L 4238 -825  L 3475 -825  L 2784 -78  Q 2681 -84 2626 -87  Q 2572 -91 2522 -91  Q 1538 -91 948 567  Q 359 1225 359 2328  Q 359 3434 948 4092  Q 1538 4750 2522 4750  Q 3503 4750 4090 4092  Q 4678 3434 4678 2328  Q 4678 1516 4351 937  Q 4025 359 3406 84  z "
                 transform="scale(0.015625)" />
              <path
                 id="DejaVuSans-55"
                 d="M 556 4666  L 1191 4666  L 1191 1831  Q 1191 1081 1462 751  Q 1734 422 2344 422  Q 2950 422 3222 751  Q 3494 1081 3494 1831  L 3494 4666  L 4128 4666  L 4128 1753  Q 4128 841 3676 375  Q 3225 -91 2344 -91  Q 1459 -91 1007 375  Q 556 841 556 1753  L 556 4666  z "
                 transform="scale(0.015625)" />
              <path
                 id="DejaVuSans-52"
                 d="M 2841 2188  Q 3044 2119 3236 1894  Q 3428 1669 3622 1275  L 4263 0  L 3584 0  L 2988 1197  Q 2756 1666 2539 1819  Q 2322 1972 1947 1972  L 1259 1972  L 1259 0  L 628 0  L 628 4666  L 2053 4666  Q 2853 4666 3247 4331  Q 3641 3997 3641 3322  Q 3641 2881 3436 2590  Q 3231 2300 2841 2188  z M 1259 4147  L 1259 2491  L 2053 2491  Q 2509 2491 2742 2702  Q 2975 2913 2975 3322  Q 2975 3731 2742 3939  Q 2509 4147 2053 4147  L 1259 4147  z "
                 transform="scale(0.015625)" />
              <path
                 id="DejaVuSans-4e"
                 d="M 628 4666  L 1478 4666  L 3547 763  L 3547 4666  L 4159 4666  L 4159 0  L 3309 0  L 1241 3903  L 1241 0  L 628 0  L 628 4666  z "
                 transform="scale(0.015625)" />
            </defs>
            <use
               xlink:href="#DejaVuSans-53"
               id="use42002" />
            <use
               xlink:href="#DejaVuSans-51"
               transform="translate(63.476562 0)"
               id="use42004" />
            <use
               xlink:href="#DejaVuSans-55"
               transform="translate(142.1875 0)"
               id="use42006" />
            <use
               xlink:href="#DejaVuSans-41"
               transform="translate(215.380859 0)"
               id="use42008" />
            <use
               xlink:href="#DejaVuSans-52"
               transform="translate(283.789062 0)"
               id="use42010" />
            <use
               xlink:href="#DejaVuSans-4e"
               transform="translate(353.271484 0)"
               id="use42012" />
            <use
               xlink:href="#DejaVuSans-41"
               transform="translate(428.076172 0)"
               id="use42014" />
          </g>
        </g>
        <g
           id="line2d_25">
          <path
             d="M 132.68 78.797813  L 150.68 78.797813  L 168.68 78.797813  "
             style="fill: none; stroke-dasharray: 4,6.6; stroke-dashoffset: 0; stroke: #ff7f0e; stroke-width: 4"
             id="path42019" />
        </g>
        <g
           id="text_13">
          <!-- RNAalifold -->
          <g
             transform="translate(183.08 85.097813) scale(0.18 -0.18)"
             id="g42042">
            <use
               xlink:href="#DejaVuSans-52"
               id="use42022" />
            <use
               xlink:href="#DejaVuSans-4e"
               transform="translate(69.482422 0)"
               id="use42024" />
            <use
               xlink:href="#DejaVuSans-41"
               transform="translate(144.287109 0)"
               id="use42026" />
            <use
               xlink:href="#DejaVuSans-61"
               transform="translate(212.695312 0)"
               id="use42028" />
            <use
               xlink:href="#DejaVuSans-6c"
               transform="translate(273.974609 0)"
               id="use42030" />
            <use
               xlink:href="#DejaVuSans-69"
               transform="translate(301.757812 0)"
               id="use42032" />
            <use
               xlink:href="#DejaVuSans-66"
               transform="translate(329.541016 0)"
               id="use42034" />
            <use
               xlink:href="#DejaVuSans-6f"
               transform="translate(364.746094 0)"
               id="use42036" />
            <use
               xlink:href="#DejaVuSans-6c"
               transform="translate(425.927734 0)"
               id="use42038" />
            <use
               xlink:href="#DejaVuSans-64"
               transform="translate(453.710938 0)"
               id="use42040" />
          </g>
        </g>
        <g
           id="line2d_26">
          <path
             d="M 132.68 105.218438  L 150.68 105.218438  L 168.68 105.218438  "
             style="fill: none; stroke-dasharray: 4,6.6; stroke-dashoffset: 0; stroke: #2ca02c; stroke-width: 4"
             id="path42045" />
        </g>
        <g
           id="text_14">
          <!-- CentroidAlifold -->
          <g
             transform="translate(183.08 111.518438) scale(0.18 -0.18)"
             id="g42078">
            <use
               xlink:href="#DejaVuSans-43"
               id="use42048" />
            <use
               xlink:href="#DejaVuSans-65"
               transform="translate(69.824219 0)"
               id="use42050" />
            <use
               xlink:href="#DejaVuSans-6e"
               transform="translate(131.347656 0)"
               id="use42052" />
            <use
               xlink:href="#DejaVuSans-74"
               transform="translate(194.726562 0)"
               id="use42054" />
            <use
               xlink:href="#DejaVuSans-72"
               transform="translate(233.935547 0)"
               id="use42056" />
            <use
               xlink:href="#DejaVuSans-6f"
               transform="translate(272.798828 0)"
               id="use42058" />
            <use
               xlink:href="#DejaVuSans-69"
               transform="translate(333.980469 0)"
               id="use42060" />
            <use
               xlink:href="#DejaVuSans-64"
               transform="translate(361.763672 0)"
               id="use42062" />
            <use
               xlink:href="#DejaVuSans-41"
               transform="translate(425.240234 0)"
               id="use42064" />
            <use
               xlink:href="#DejaVuSans-6c"
               transform="translate(493.648438 0)"
               id="use42066" />
            <use
               xlink:href="#DejaVuSans-69"
               transform="translate(521.431641 0)"
               id="use42068" />
            <use
               xlink:href="#DejaVuSans-66"
               transform="translate(549.214844 0)"
               id="use42070" />
            <use
               xlink:href="#DejaVuSans-6f"
               transform="translate(584.419922 0)"
               id="use42072" />
            <use
               xlink:href="#DejaVuSans-6c"
               transform="translate(645.601562 0)"
               id="use42074" />
            <use
               xlink:href="#DejaVuSans-64"
               transform="translate(673.384766 0)"
               id="use42076" />
          </g>
        </g>
        <g
           id="line2d_27">
          <path
             d="M 132.68 143.588813  L 150.68 143.588813  L 168.68 143.588813  "
             style="fill: none; stroke-dasharray: 14.8,6.4; stroke-dashoffset: 0; stroke: #d62728; stroke-width: 4"
             id="path42081" />
        </g>
        <g
           id="text_15">
          <!-- Rscape -->
          <g
             transform="translate(183.08 137.939063) scale(0.18 -0.18)"
             id="g42096">
            <use
               xlink:href="#DejaVuSans-52"
               id="use42084" />
            <use
               xlink:href="#DejaVuSans-73"
               transform="translate(69.482422 0)"
               id="use42086" />
            <use
               xlink:href="#DejaVuSans-63"
               transform="translate(121.582031 0)"
               id="use42088" />
            <use
               xlink:href="#DejaVuSans-61"
               transform="translate(176.5625 0)"
               id="use42090" />
            <use
               xlink:href="#DejaVuSans-70"
               transform="translate(237.841797 0)"
               id="use42092" />
            <use
               xlink:href="#DejaVuSans-65"
               transform="translate(301.318359 0)"
               id="use42094" />
          </g>
          <!-- nested -->
          <g
             transform="translate(183.08 158.095125) scale(0.18 -0.18)"
             id="g42110">
            <use
               xlink:href="#DejaVuSans-6e"
               id="use42098" />
            <use
               xlink:href="#DejaVuSans-65"
               transform="translate(63.378906 0)"
               id="use42100" />
            <use
               xlink:href="#DejaVuSans-73"
               transform="translate(124.902344 0)"
               id="use42102" />
            <use
               xlink:href="#DejaVuSans-74"
               transform="translate(177.001953 0)"
               id="use42104" />
            <use
               xlink:href="#DejaVuSans-65"
               transform="translate(216.210938 0)"
               id="use42106" />
            <use
               xlink:href="#DejaVuSans-64"
               transform="translate(277.734375 0)"
               id="use42108" />
          </g>
        </g>
        <g
           id="line2d_28">
          <path
             d="M 132.68 190.1655  L 150.68 190.1655  L 168.68 190.1655  "
             style="fill: none; stroke-dasharray: 14.8,6.4; stroke-dashoffset: 0; stroke: #9467bd; stroke-width: 4"
             id="path42113" />
        </g>
        <g
           id="text_16">
          <!-- Rscape -->
          <g
             transform="translate(183.08 184.51575) scale(0.18 -0.18)"
             id="g42128">
            <use
               xlink:href="#DejaVuSans-52"
               id="use42116" />
            <use
               xlink:href="#DejaVuSans-73"
               transform="translate(69.482422 0)"
               id="use42118" />
            <use
               xlink:href="#DejaVuSans-63"
               transform="translate(121.582031 0)"
               id="use42120" />
            <use
               xlink:href="#DejaVuSans-61"
               transform="translate(176.5625 0)"
               id="use42122" />
            <use
               xlink:href="#DejaVuSans-70"
               transform="translate(237.841797 0)"
               id="use42124" />
            <use
               xlink:href="#DejaVuSans-65"
               transform="translate(301.318359 0)"
               id="use42126" />
          </g>
          <!-- total -->
          <g
             transform="translate(183.08 204.671813) scale(0.18 -0.18)"
             id="g42140">
            <use
               xlink:href="#DejaVuSans-74"
               id="use42130" />
            <use
               xlink:href="#DejaVuSans-6f"
               transform="translate(39.208984 0)"
               id="use42132" />
            <use
               xlink:href="#DejaVuSans-74"
               transform="translate(100.390625 0)"
               id="use42134" />
            <use
               xlink:href="#DejaVuSans-61"
               transform="translate(139.599609 0)"
               id="use42136" />
            <use
               xlink:href="#DejaVuSans-6c"
               transform="translate(200.878906 0)"
               id="use42138" />
          </g>
        </g>
      </g>
    </g>
  </g>
  <defs
     id="defs42149">
    <clipPath
       id="p01a08be0bf">
      <rect
         x="116.48"
         y="28.8"
         width="568.735"
         height="325.24"
         id="rect42146" />
    </clipPath>
  </defs>
</svg>
