<svg width="333.40495582194876" height="314.26771947748966" viewBox="0 0 333.40495582194876 314.26771947748966"  xmlns="http://www.w3.org/2000/svg"><line x1="38.59498947697651" y1="215.00596044151695" x2="29.374586262051082" y2="194.72203079931955" stroke="#000000" stroke-width="1.0114896"/><line x1="29.374586262051082" y1="194.72203079931955" x2="38.59498947697651" y2="174.43810115712216" stroke="#000000" stroke-width="1.0114896"/><line x1="73.9971252268985" y1="174.43810115712216" x2="80.80426406621457" y2="183.581411009835" stroke="#000000" stroke-width="1.0114896"/><line x1="80.80426406621457" y1="183.581411009835" x2="83.21752844182393" y2="194.72203079931955" stroke="#000000" stroke-width="1.0114896"/><line x1="83.21752844182393" y1="194.72203079931955" x2="80.80426406621459" y2="205.86265058880414" stroke="#000000" stroke-width="1.0114896"/><line x1="80.80426406621459" y1="205.86265058880414" x2="73.9971252268985" y2="215.00596044151695" stroke="#000000" stroke-width="1.0114896"/><g></g><g></g><g></g><g></g><line x1="38.594989476976494" y1="78.34658983590529" x2="28.777528922224477" y2="65.45562861980301" stroke="#000000" stroke-width="1.0114896"/><line x1="28.777528922224477" y1="65.45562861980301" x2="27.233187229290873" y2="49.32570544718271" stroke="#000000" stroke-width="1.0114896"/><line x1="27.233187229290873" y1="49.32570544718271" x2="34.42625239313637" y2="34.80609021922862" stroke="#000000" stroke-width="1.0114896"/><line x1="34.42625239313637" y1="34.80609021922862" x2="48.19421477109262" y2="26.261932871757267" stroke="#000000" stroke-width="1.0114896"/><line x1="48.19421477109262" y1="26.261932871757267" x2="64.3978999327824" y2="26.26193287175721" stroke="#000000" stroke-width="1.0114896"/><line x1="64.3978999327824" y1="26.26193287175721" x2="78.16586231073862" y2="34.806090219228565" stroke="#000000" stroke-width="1.0114896"/><line x1="78.16586231073862" y1="34.806090219228565" x2="85.35892747458414" y2="49.32570544718271" stroke="#000000" stroke-width="1.0114896"/><line x1="85.35892747458414" y1="49.32570544718271" x2="83.8145857816505" y2="65.45562861980304" stroke="#000000" stroke-width="1.0114896"/><line x1="83.8145857816505" y1="65.45562861980304" x2="73.9971252268985" y2="78.34658983590529" stroke="#000000" stroke-width="1.0114896"/><g></g><g></g><g></g><g></g><g></g><g></g><g></g><g></g><line x1="222.6860953765709" y1="176.56935591303022" x2="211.49710968168756" y2="166.25384838129594" stroke="#000000" stroke-width="1.0114896"/><line x1="211.49710968168756" y1="166.25384838129594" x2="205.7081937437045" y2="152.179348433499" stroke="#000000" stroke-width="1.0114896"/><line x1="205.7081937437045" y1="152.179348433499" x2="206.40139989618217" y2="136.97663282911643" stroke="#000000" stroke-width="1.0114896"/><line x1="206.40139989618217" y1="136.97663282911643" x2="213.44715546213547" y2="123.48736209188198" stroke="#000000" stroke-width="1.0114896"/><line x1="213.44715546213547" y1="123.48736209188198" x2="225.52848221394584" y2="114.23292313354631" stroke="#000000" stroke-width="1.0114896"/><line x1="225.52848221394584" y1="114.23292313354631" x2="240.3871632515319" y2="110.94313676649281" stroke="#000000" stroke-width="1.0114896"/><line x1="240.3871632515319" y1="110.94313676649281" x2="255.24584428911794" y2="114.23292313354631" stroke="#000000" stroke-width="1.0114896"/><line x1="255.24584428911794" y1="114.23292313354631" x2="267.3271710409283" y2="123.48736209188198" stroke="#000000" stroke-width="1.0114896"/><line x1="267.3271710409283" y1="123.48736209188198" x2="274.3729266068816" y2="136.9766328291164" stroke="#000000" stroke-width="1.0114896"/><line x1="274.3729266068816" y1="136.9766328291164" x2="275.0661327593594" y2="152.17934843349894" stroke="#000000" stroke-width="1.0114896"/><line x1="275.0661327593594" y1="152.17934843349894" x2="269.27721682137627" y2="166.25384838129594" stroke="#000000" stroke-width="1.0114896"/><line x1="269.27721682137627" y1="166.25384838129594" x2="258.08823112649293" y2="176.56935591303022" stroke="#000000" stroke-width="1.0114896"/><g></g><g></g><g></g><g></g><g></g><g></g><g></g><g></g><g></g><g></g><g></g><line x1="38.59498947697651" y1="291.87916949849046" x2="38.59498947697651" y2="272.66086723424706" stroke="#000000" stroke-width="1.0114896"/><line x1="38.59498947697651" y1="272.66086723424706" x2="38.5949894769765" y2="253.4425649700037" stroke="#000000" stroke-width="1.0114896"/><line x1="38.5949894769765" y1="253.4425649700037" x2="38.5949894769765" y2="234.22426270576034" stroke="#000000" stroke-width="1.0114896"/><line x1="38.5949894769765" y1="234.22426270576034" x2="38.59498947697651" y2="215.00596044151695" stroke="#000000" stroke-width="1.0114896"/><line x1="73.9971252268985" y1="215.00596044151695" x2="73.9971252268985" y2="234.22426270576034" stroke="#000000" stroke-width="1.0114896"/><line x1="73.9971252268985" y1="234.22426270576034" x2="73.9971252268985" y2="253.4425649700037" stroke="#000000" stroke-width="1.0114896"/><line x1="73.9971252268985" y1="253.4425649700037" x2="73.9971252268985" y2="272.66086723424706" stroke="#000000" stroke-width="1.0114896"/><line x1="73.9971252268985" y1="272.66086723424706" x2="73.9971252268985" y2="291.87916949849046" stroke="#000000" stroke-width="1.0114896"/><line x1="41.62945825554125" y1="291.87916949849046" x2="70.96265644833376" y2="291.87916949849046" stroke="#000000" stroke-width="1.0114896"/><g></g><g></g><line x1="41.62945825554125" y1="272.66086723424706" x2="70.96265644833376" y2="272.66086723424706" stroke="#000000" stroke-width="1.0114896"/><g></g><g></g><line x1="41.629458255541245" y1="253.4425649700037" x2="70.96265644833377" y2="253.4425649700037" stroke="#000000" stroke-width="1.0114896"/><g></g><g></g><line x1="41.629458255541245" y1="234.22426270576034" x2="70.96265644833377" y2="234.22426270576034" stroke="#000000" stroke-width="1.0114896"/><g></g><g></g><line x1="41.62945825554125" y1="215.00596044151695" x2="70.96265644833376" y2="215.00596044151695" stroke="#000000" stroke-width="1.0114896"/><g></g><g></g><line x1="38.59498947697651" y1="174.43810115712216" x2="38.59498947697651" y2="155.2197988928788" stroke="#000000" stroke-width="1.0114896"/><line x1="38.59498947697651" y1="155.2197988928788" x2="38.5949894769765" y2="136.0014966286354" stroke="#000000" stroke-width="1.0114896"/><line x1="38.5949894769765" y1="136.0014966286354" x2="38.5949894769765" y2="116.78319436439205" stroke="#000000" stroke-width="1.0114896"/><line x1="38.5949894769765" y1="116.78319436439205" x2="38.5949894769765" y2="97.56489210014868" stroke="#000000" stroke-width="1.0114896"/><line x1="38.5949894769765" y1="97.56489210014868" x2="38.594989476976494" y2="78.34658983590529" stroke="#000000" stroke-width="1.0114896"/><line x1="73.9971252268985" y1="78.34658983590529" x2="73.9971252268985" y2="97.56489210014868" stroke="#000000" stroke-width="1.0114896"/><line x1="73.9971252268985" y1="97.56489210014868" x2="73.9971252268985" y2="116.78319436439205" stroke="#000000" stroke-width="1.0114896"/><line x1="73.9971252268985" y1="116.78319436439205" x2="73.9971252268985" y2="136.0014966286354" stroke="#000000" stroke-width="1.0114896"/><line x1="73.9971252268985" y1="136.0014966286354" x2="73.9971252268985" y2="155.2197988928788" stroke="#000000" stroke-width="1.0114896"/><line x1="73.9971252268985" y1="155.2197988928788" x2="73.9971252268985" y2="174.43810115712216" stroke="#000000" stroke-width="1.0114896"/><line x1="41.62945825554125" y1="174.43810115712216" x2="70.96265644833376" y2="174.43810115712216" stroke="#000000" stroke-width="1.0114896"/><g></g><g></g><line x1="41.62945825554125" y1="155.2197988928788" x2="70.96265644833376" y2="155.2197988928788" stroke="#000000" stroke-width="1.0114896"/><g></g><g></g><line x1="41.629458255541245" y1="136.0014966286354" x2="70.96265644833376" y2="136.0014966286354" stroke="#000000" stroke-width="1.0114896"/><g></g><g></g><line x1="41.629458255541245" y1="116.78319436439205" x2="70.96265644833376" y2="116.78319436439205" stroke="#000000" stroke-width="1.0114896"/><g></g><g></g><line x1="41.629458255541245" y1="97.56489210014868" x2="70.96265644833376" y2="97.56489210014868" stroke="#000000" stroke-width="1.0114896"/><g></g><g></g><line x1="41.62945825554124" y1="78.34658983590529" x2="70.96265644833376" y2="78.34658983590529" stroke="#000000" stroke-width="1.0114896"/><g></g><g></g><line x1="222.6860953765709" y1="291.87916949849046" x2="222.6860953765709" y2="272.66086723424706" stroke="#000000" stroke-width="1.0114896"/><line x1="222.6860953765709" y1="272.66086723424706" x2="222.6860953765709" y2="253.4425649700037" stroke="#000000" stroke-width="1.0114896"/><line x1="222.6860953765709" y1="253.4425649700037" x2="222.6860953765709" y2="234.22426270576034" stroke="#000000" stroke-width="1.0114896"/><line x1="222.6860953765709" y1="234.22426270576034" x2="222.6860953765709" y2="215.00596044151695" stroke="#000000" stroke-width="1.0114896"/><line x1="222.6860953765709" y1="215.00596044151695" x2="222.6860953765709" y2="195.78765817727358" stroke="#000000" stroke-width="1.0114896"/><line x1="222.6860953765709" y1="195.78765817727358" x2="222.6860953765709" y2="176.56935591303022" stroke="#000000" stroke-width="1.0114896"/><line x1="258.08823112649293" y1="176.56935591303022" x2="258.08823112649293" y2="195.78765817727358" stroke="#000000" stroke-width="1.0114896"/><line x1="258.08823112649293" y1="195.78765817727358" x2="258.08823112649293" y2="215.00596044151695" stroke="#000000" stroke-width="1.0114896"/><line x1="258.08823112649293" y1="215.00596044151695" x2="258.08823112649293" y2="234.22426270576034" stroke="#000000" stroke-width="1.0114896"/><line x1="258.08823112649293" y1="234.22426270576034" x2="258.08823112649293" y2="253.4425649700037" stroke="#000000" stroke-width="1.0114896"/><line x1="258.08823112649293" y1="253.4425649700037" x2="258.08823112649293" y2="272.66086723424706" stroke="#000000" stroke-width="1.0114896"/><line x1="258.08823112649293" y1="272.66086723424706" x2="258.08823112649293" y2="291.87916949849046" stroke="#000000" stroke-width="1.0114896"/><line x1="225.72056415513566" y1="291.87916949849046" x2="255.05376234792817" y2="291.87916949849046" stroke="#000000" stroke-width="1.0114896"/><g></g><g></g><line x1="225.72056415513566" y1="272.66086723424706" x2="255.05376234792817" y2="272.66086723424706" stroke="#000000" stroke-width="1.0114896"/><g></g><g></g><line x1="225.72056415513566" y1="253.4425649700037" x2="255.05376234792817" y2="253.4425649700037" stroke="#000000" stroke-width="1.0114896"/><g></g><g></g><line x1="225.72056415513566" y1="234.22426270576034" x2="255.05376234792817" y2="234.22426270576034" stroke="#000000" stroke-width="1.0114896"/><g></g><g></g><line x1="225.72056415513566" y1="215.00596044151695" x2="255.05376234792817" y2="215.00596044151695" stroke="#000000" stroke-width="1.0114896"/><g></g><g></g><line x1="225.72056415513566" y1="195.78765817727358" x2="255.05376234792817" y2="195.78765817727358" stroke="#000000" stroke-width="1.0114896"/><g></g><g></g><line x1="225.72056415513566" y1="176.56935591303022" x2="255.05376234792817" y2="176.56935591303022" stroke="#000000" stroke-width="1.0114896"/><g></g><g></g><line x1="27.974348751999905" y1="291.87916949849046" x2="38.59498947697651" y2="291.87916949849046" stroke="#000000" stroke-width="1.0114896"/><g></g><line x1="73.9971252268985" y1="291.87916949849046" x2="87.51430433141418" y2="291.87916949849046" stroke="#000000" stroke-width="1.0114896"/><line x1="87.51430433141418" y1="291.87916949849046" x2="101.03148343592986" y2="291.87916949849046" stroke="#000000" stroke-width="1.0114896"/><line x1="101.03148343592986" y1="291.87916949849046" x2="114.54866254044553" y2="291.87916949849046" stroke="#000000" stroke-width="1.0114896"/><line x1="114.54866254044553" y1="291.87916949849046" x2="128.0658416449612" y2="291.87916949849046" stroke="#000000" stroke-width="1.0114896"/><line x1="128.0658416449612" y1="291.87916949849046" x2="141.58302074947687" y2="291.87916949849046" stroke="#000000" stroke-width="1.0114896"/><line x1="141.58302074947687" y1="291.87916949849046" x2="155.10019985399254" y2="291.87916949849046" stroke="#000000" stroke-width="1.0114896"/><line x1="155.10019985399254" y1="291.87916949849046" x2="168.61737895850823" y2="291.87916949849046" stroke="#000000" stroke-width="1.0114896"/><line x1="168.61737895850823" y1="291.87916949849046" x2="182.1345580630239" y2="291.87916949849046" stroke="#000000" stroke-width="1.0114896"/><line x1="182.1345580630239" y1="291.87916949849046" x2="195.65173716753952" y2="291.87916949849046" stroke="#000000" stroke-width="1.0114896"/><line x1="195.65173716753952" y1="291.87916949849046" x2="209.16891627205524" y2="291.87916949849046" stroke="#000000" stroke-width="1.0114896"/><line x1="209.16891627205524" y1="291.87916949849046" x2="222.6860953765709" y2="291.87916949849046" stroke="#000000" stroke-width="1.0114896"/><g></g><g></g><g></g><g></g><g></g><g></g><g></g><g></g><g></g><g></g><line x1="258.08823112649293" y1="291.87916949849046" x2="271.3640320327137" y2="291.87916949849046" stroke="#000000" stroke-width="1.0114896"/><line x1="271.3640320327137" y1="291.87916949849046" x2="284.63983293893443" y2="291.87916949849046" stroke="#000000" stroke-width="1.0114896"/><line x1="284.63983293893443" y1="291.87916949849046" x2="297.9156338451552" y2="291.87916949849046" stroke="#000000" stroke-width="1.0114896"/><line x1="297.9156338451552" y1="291.87916949849046" x2="311.19143475137594" y2="291.87916949849046" stroke="#000000" stroke-width="1.0114896"/><g></g><g></g><g></g><g></g></svg>
